<svg width="132" height="51" viewBox="0 0 132 51" fill="none" xmlns="http://www.w3.org/2000/svg">
<path d="M42.4138 45.3928C41.2925 45.2139 40.4692 44.7328 39.9438 43.9498C39.4317 43.1666 39.172 42.235 39.1646 41.155C39.1592 40.3684 39.2802 39.5475 39.5277 38.6925C39.775 37.8241 40.1292 36.975 40.5902 36.1451C41.0645 35.3152 41.6325 34.5446 42.2943 33.8334C42.956 33.1088 43.7051 32.4903 44.5416 31.9779C45.3781 31.4654 46.289 31.1058 47.2743 30.8991C47.8734 30.775 48.4463 30.711 48.993 30.7073C50.0596 30.6999 50.9144 30.9074 51.5573 31.3296C52.2002 31.7386 52.5238 32.2697 52.5283 32.923C52.5292 33.0563 52.5168 33.1898 52.4911 33.3233C52.4786 33.4434 52.4395 33.577 52.3738 33.7241C52.2298 34.1118 51.9855 34.4601 51.641 34.7692C51.3097 35.0648 50.9246 35.2941 50.4857 35.4571C50.0601 35.62 49.6206 35.6897 49.1671 35.6662C48.9536 35.641 48.7664 35.5689 48.6056 35.45C48.458 35.3177 48.3836 35.1582 48.3823 34.9716C48.381 34.7849 48.4596 34.5843 48.6182 34.3699C48.7652 34.4222 48.932 34.4478 49.1187 34.4465C49.452 34.4442 49.7781 34.3619 50.097 34.1997C50.4159 34.0376 50.6811 33.8157 50.8925 33.5343C51.1039 33.2528 51.2084 32.9387 51.206 32.5921C51.2028 32.1254 51.0407 31.8199 50.7197 31.6754C50.3986 31.5176 50.0381 31.4401 49.6381 31.4428C49.3714 31.4447 49.1049 31.4732 48.8386 31.5283C48.5856 31.5701 48.3792 31.6115 48.2195 31.6526C47.4609 31.8578 46.6834 32.2298 45.8871 32.7686C45.104 33.294 44.3884 33.939 43.7403 34.7034C43.0922 35.4546 42.5911 36.278 42.2373 37.1738C41.9751 37.829 41.773 38.4904 41.6309 39.158C41.4888 39.8257 41.4198 40.4595 41.424 41.0595C41.4293 41.8328 41.5606 42.5119 41.818 43.0969C42.0887 43.6817 42.5115 44.0854 43.0863 44.3082C43.6077 44.5046 44.1417 44.6009 44.6884 44.5972C45.5683 44.5911 46.4535 44.3717 47.3439 43.9389C48.2476 43.506 49.0772 42.9603 49.8327 42.3018C50.2965 41.8852 50.7136 41.4557 51.0839 41.0131C51.4542 40.5706 51.7376 40.1019 51.9342 39.6073C52.1887 39.7655 52.3169 39.998 52.319 40.3046C52.3207 40.5446 52.2491 40.8051 52.1044 41.0861C51.973 41.367 51.8148 41.6281 51.6298 41.8694C51.4581 42.1106 51.306 42.2983 51.1736 42.4325C50.247 43.4123 49.1322 44.1666 47.8291 44.6956C46.5394 45.2245 45.2279 45.4935 43.8946 45.5026C43.3879 45.5061 42.8943 45.4695 42.4138 45.3928ZM63.0355 44.9311C62.5421 44.9345 62.208 44.8168 62.033 44.578C61.8714 44.3391 61.7893 44.033 61.7867 43.6596C61.7851 43.433 61.8036 43.2062 61.842 42.9792C61.8804 42.739 61.9187 42.492 61.9569 42.2384C62.0597 41.6644 62.2352 41.0165 62.4836 40.2948C62.7452 39.5596 63.0398 38.7709 63.3673 37.9286L57.7075 37.9675C57.55 38.3286 57.3598 38.7966 57.1371 39.3715C56.9276 39.9329 56.7184 40.5344 56.5095 41.1758C56.3006 41.8173 56.1247 42.4252 55.982 42.9995C55.8392 43.5605 55.769 44.021 55.7715 44.381C55.7729 44.581 55.8006 44.7275 55.8545 44.8204L53.2746 44.8382C53.43 44.1704 53.6382 43.429 53.8993 42.6138C54.1736 41.7852 54.481 40.9231 54.8216 40.0274C55.1754 39.1316 55.536 38.2425 55.9033 37.3599C56.2705 36.4774 56.6248 35.6349 56.9659 34.8326C57.307 34.0169 57.7013 33.1941 58.149 32.3644C58.2412 32.2037 58.3202 32.0565 58.386 31.9227C58.465 31.7889 58.5509 31.6749 58.6436 31.581C58.1237 31.5979 57.5642 31.6684 56.965 31.7925C56.3791 31.9032 55.8135 32.0604 55.2682 32.2642C54.7363 32.4678 54.2779 32.7043 53.8931 32.9736C53.5216 33.2429 53.2836 33.5378 53.1791 33.8586C53.1661 33.8987 53.1395 33.9188 53.0995 33.9191C52.9795 33.9199 52.9189 33.827 52.9176 33.6404C52.9174 33.6004 52.9303 33.5403 52.9564 33.4601C53.074 33.1126 53.2186 32.8049 53.3901 32.5371C53.5749 32.2691 53.76 32.0412 53.9454 31.8532C54.3822 31.3969 54.8737 31.1202 55.4197 31.0231C55.9656 30.9127 56.5452 30.8554 57.1586 30.8511L61.6785 30.8201C61.3867 31.0488 61.0758 31.4042 60.7458 31.8865C60.4157 32.3688 60.0862 32.9177 59.7571 33.5333C59.4279 34.1356 59.1187 34.7444 58.8296 35.3598C58.5537 35.9617 58.3108 36.5034 58.1007 36.9848L63.7606 36.9459C64.0492 36.2506 64.338 35.5886 64.627 34.9599C64.9159 34.3179 65.172 33.7495 65.3953 33.2546C65.6319 32.7596 65.816 32.3917 65.9477 32.1508C66.0923 31.8564 66.2306 31.6088 66.3626 31.4079C66.5079 31.2069 66.6935 31.0523 66.9194 30.9441C67.1454 30.8358 67.465 30.7803 67.8783 30.7775L69.1583 30.7687C68.9196 30.957 68.6484 31.2789 68.3449 31.7343C68.0546 32.1763 67.758 32.6717 67.4551 33.2204C67.1655 33.7691 66.9091 34.2909 66.6858 34.7858C66.3574 35.4947 66.0095 36.2971 65.6423 37.193C65.2885 38.0888 64.968 38.9843 64.6808 39.8797C64.4068 40.7616 64.2123 41.5563 64.0972 42.2637C64.0585 42.464 64.0399 42.6641 64.0413 42.8641C64.0433 43.1575 64.0985 43.4304 64.2069 43.683C64.3152 43.9223 64.5094 44.0409 64.7894 44.039C65.0027 44.0375 65.2621 43.9491 65.5676 43.7737L65.5876 43.7735C65.6142 43.7733 65.6344 43.7999 65.6481 43.8531C65.6617 43.893 65.6553 43.9264 65.6288 43.9532C65.47 44.1277 65.2444 44.2892 64.9521 44.4379C64.6598 44.5866 64.3406 44.7021 63.9945 44.7845C63.6618 44.8801 63.3421 44.929 63.0355 44.9311ZM72.9331 45.3431C71.9464 45.3499 71.0788 45.2092 70.3301 44.921C69.5815 44.6461 68.9984 44.1901 68.5806 43.5529C68.1629 42.9158 67.9504 42.0639 67.9431 40.9973C67.9357 39.9306 68.1019 38.8895 68.4416 37.8738C68.7946 36.8447 69.2813 35.888 69.9019 35.0037C70.5225 34.1194 71.2505 33.341 72.0859 32.6686C72.9347 31.9961 73.8511 31.4698 74.8351 31.0897C75.8192 30.7096 76.8446 30.5159 77.9112 30.5085C79.0979 30.5004 80.0659 30.6937 80.8153 31.0886C81.5647 31.4834 82.1151 32.0263 82.4665 32.7173C82.8312 33.3948 83.0164 34.1602 83.0223 35.0135C83.0301 36.1468 82.7649 37.3353 82.2268 38.5791C81.6755 39.8495 80.95 40.9946 80.0503 42.0141C79.1507 43.0336 78.0962 43.8409 76.8869 44.4359C75.691 45.0308 74.373 45.3332 72.9331 45.3431ZM74.7457 44.2706C75.5309 44.0519 76.3015 43.6532 77.0576 43.0747C77.8136 42.4961 78.4955 41.8048 79.1034 41.0006C79.7112 40.1964 80.1921 39.3531 80.546 38.4706C81.0967 37.1201 81.368 35.8516 81.3599 34.6649C81.3586 34.4783 81.344 34.2984 81.3162 34.1252C81.3016 33.952 81.2805 33.7854 81.2527 33.6256C81.1005 32.8133 80.7565 32.2423 80.2209 31.9127C79.6853 31.583 79.0842 31.4205 78.4175 31.4251C77.7242 31.4298 77.0185 31.5747 76.3005 31.8596C75.5823 32.1312 74.9646 32.4688 74.4474 32.8724C73.8109 33.3834 73.2216 33.9675 72.6794 34.6246C72.1372 35.2816 71.682 35.9781 71.3137 36.714C70.9981 37.3562 70.7429 38.058 70.5482 38.8193C70.3666 39.5672 70.2783 40.2945 70.2832 41.0012C70.2876 41.6412 70.3849 42.2272 70.5752 42.7592C70.7656 43.2913 71.0752 43.7225 71.5042 44.0529C71.933 44.3699 72.5008 44.526 73.2074 44.5212C73.6607 44.5181 74.1735 44.4345 74.7457 44.2706ZM89.5928 45.2286C88.6062 45.2354 87.7385 45.0947 86.9899 44.8065C86.2413 44.5316 85.6581 44.0756 85.2404 43.4385C84.8227 42.8013 84.6102 41.9494 84.6028 40.8828C84.5955 39.8161 84.7617 38.775 85.1014 37.7593C85.4543 36.7302 85.9411 35.7735 86.5617 34.8892C87.1823 34.0049 87.9103 33.2265 88.7457 32.5541C89.5944 31.8816 90.5108 31.3553 91.4949 30.9752C92.479 30.5951 93.5043 30.4014 94.571 30.394C95.7576 30.3859 96.7256 30.5792 97.475 30.9741C98.2244 31.3689 98.7749 31.9118 99.1263 32.6028C99.4909 33.2803 99.6762 34.0457 99.6821 34.899C99.6899 36.0323 99.4247 37.2208 98.8866 38.4646C98.3353 39.735 97.6098 40.8801 96.7101 41.8996C95.8104 42.9191 94.7559 43.7264 93.5467 44.3214C92.3507 44.9163 91.0328 45.2187 89.5928 45.2286ZM91.4055 44.1561C92.1907 43.9374 92.9613 43.5387 93.7173 42.9602C94.4734 42.3817 95.1553 41.6903 95.7631 40.8861C96.3709 40.0819 96.8518 39.2386 97.2058 38.3561C97.7565 37.0056 98.0278 35.7371 98.0196 34.5504C98.0184 34.3638 98.0038 34.1839 97.9759 34.0107C97.9614 33.8375 97.9403 33.671 97.9125 33.5111C97.7602 32.6988 97.4163 32.1278 96.8807 31.7982C96.3451 31.4685 95.744 31.306 95.0773 31.3106C94.384 31.3153 93.6783 31.4602 92.9602 31.7451C92.2421 32.0167 91.6244 32.3543 91.1072 32.7579C90.4706 33.2689 89.8813 33.853 89.3392 34.5101C88.797 35.1672 88.3418 35.8636 87.9735 36.5995C87.6579 37.2417 87.4027 37.9435 87.2079 38.7048C87.0264 39.4528 86.9381 40.18 86.9429 40.8867C86.9473 41.5267 87.0447 42.1127 87.235 42.6447C87.4253 43.1768 87.735 43.608 88.1639 43.9384C88.5928 44.2554 89.1605 44.4115 89.8672 44.4067C90.3205 44.4036 90.8333 44.32 91.4055 44.1561ZM101.809 44.5046C101.529 44.5065 101.322 44.408 101.187 44.2089C101.066 44.0097 101.004 43.7368 101.001 43.3901C101 43.1902 101.019 42.97 101.057 42.7297C101.095 42.4895 101.14 42.2358 101.192 41.9688C101.347 41.2611 101.588 40.4794 101.916 39.6238C102.256 38.7547 102.643 37.8654 103.077 36.9557C103.524 36.0326 103.971 35.1362 104.419 34.2664C104.879 33.3966 105.307 32.6003 105.702 31.8776C105.729 31.8241 105.781 31.7237 105.86 31.5765C105.953 31.4292 106.025 31.322 106.078 31.255C105.558 31.2719 104.999 31.3424 104.4 31.4665C103.814 31.5772 103.248 31.7344 102.703 31.9382C102.171 32.1418 101.712 32.3783 101.328 32.6476C100.956 32.9169 100.718 33.2119 100.614 33.5326C100.601 33.5727 100.574 33.5929 100.534 33.5931C100.414 33.594 100.353 33.501 100.352 33.3144C100.352 33.2744 100.365 33.2143 100.391 33.1341C100.522 32.7865 100.673 32.4788 100.845 32.211C101.016 31.9431 101.194 31.7152 101.38 31.5273C101.817 31.0709 102.308 30.7942 102.854 30.6971C103.4 30.5867 103.98 30.5294 104.593 30.5252L109.133 30.494C108.841 30.7226 108.497 31.1383 108.102 31.7411C107.706 32.3305 107.297 33 106.875 33.7496C106.691 34.0842 106.461 34.5191 106.184 35.0543C105.908 35.5896 105.619 36.1849 105.316 36.8403C105.014 37.4824 104.725 38.1311 104.45 38.7863C104.174 39.4416 103.939 40.0632 103.743 40.6512C103.547 41.2259 103.423 41.7201 103.373 42.1338C103.36 42.2006 103.354 42.2673 103.354 42.334C103.355 42.3873 103.355 42.4473 103.355 42.5139C103.358 42.8873 103.46 43.1999 103.662 43.4519C103.864 43.6905 104.238 43.8079 104.784 43.8042C105.491 43.7993 106.204 43.7677 106.924 43.7095C107.657 43.6378 108.369 43.4995 109.061 43.2948C109.646 43.1174 110.178 42.8804 110.656 42.5838C111.134 42.2872 111.478 41.9181 111.688 41.4767C111.715 41.4231 111.748 41.3962 111.788 41.396C111.881 41.3953 111.928 41.4683 111.929 41.615C111.93 41.6417 111.923 41.675 111.91 41.7151C111.91 41.7551 111.904 41.8019 111.891 41.8553C111.787 42.2027 111.662 42.5102 111.517 42.7779C111.373 43.0455 111.227 43.2732 111.082 43.4609C110.712 43.9168 110.227 44.2001 109.628 44.3109C109.042 44.4082 108.456 44.4589 107.869 44.463L101.809 44.5046ZM116.397 44.8044C115.73 44.809 115.11 44.7532 114.536 44.6372C113.962 44.5211 113.48 44.3244 113.092 44.0471C112.824 43.8489 112.615 43.597 112.466 43.2914C112.331 42.9856 112.262 42.6727 112.26 42.3528C112.257 41.9528 112.368 41.5787 112.592 41.2304C112.817 40.8822 113.175 40.6464 113.667 40.523C113.734 40.5092 113.794 40.5022 113.847 40.5018C113.914 40.488 113.974 40.4809 114.027 40.4806C114.294 40.4787 114.528 40.5371 114.728 40.6557C114.943 40.7743 115.09 40.9133 115.171 41.0727C115.118 41.1131 115.045 41.1869 114.953 41.2942C114.86 41.3882 114.801 41.4686 114.774 41.5355C114.577 41.8702 114.479 42.2042 114.481 42.5375C114.484 42.9908 114.66 43.3629 115.009 43.6539C115.371 43.9314 115.839 44.0682 116.412 44.0643C116.932 44.0607 117.418 43.9307 117.869 43.6742C118.334 43.4044 118.705 43.0485 118.982 42.6066C119.272 42.1646 119.415 41.6569 119.411 41.0836C119.409 40.6569 119.305 40.2043 119.102 39.7257C118.926 39.3135 118.683 38.9485 118.375 38.6306C118.079 38.3127 117.797 38.0146 117.528 37.7364C117.166 37.3523 116.817 36.9813 116.481 36.6236C116.158 36.2525 115.889 35.8543 115.672 35.4291C115.469 34.9905 115.366 34.4979 115.362 33.9512C115.359 33.4312 115.462 32.9239 115.672 32.4291C115.895 31.9342 116.212 31.512 116.623 31.1625C117.087 30.7593 117.619 30.4756 118.217 30.3115C118.816 30.1474 119.442 30.0631 120.096 30.0586C120.909 30.053 121.55 30.1553 122.018 30.3654C122.499 30.5621 122.841 30.8198 123.043 31.1384C123.259 31.4569 123.368 31.7962 123.37 32.1562C123.373 32.5028 123.295 32.8367 123.137 33.1578C122.993 33.4788 122.788 33.7535 122.523 33.982C122.258 34.1972 121.965 34.3325 121.645 34.3881C121.592 34.4018 121.539 34.4088 121.486 34.4092C121.432 34.4095 121.372 34.4099 121.306 34.4104C121.012 34.4124 120.752 34.3475 120.524 34.2158C120.31 34.0839 120.202 33.858 120.2 33.538C120.199 33.498 120.199 33.4513 120.199 33.398C120.212 33.3446 120.225 33.2911 120.238 33.2377C120.478 33.2361 120.724 33.1477 120.976 32.9726C121.228 32.7976 121.393 32.6031 121.472 32.3892C121.537 32.2154 121.569 32.0552 121.568 31.9085C121.566 31.5485 121.397 31.2697 121.063 31.072C120.741 30.8609 120.36 30.7568 119.921 30.7598C119.401 30.7634 118.935 30.8799 118.523 31.1094C118.124 31.3255 117.813 31.6143 117.589 31.9759C117.365 32.3241 117.254 32.7049 117.257 33.1182C117.259 33.5315 117.389 33.9306 117.645 34.3156C117.86 34.6207 118.129 34.9389 118.451 35.27C118.774 35.5878 119.102 35.8989 119.438 36.2033C119.773 36.4943 120.062 36.7657 120.304 37.0173C120.854 37.5469 121.251 38.0909 121.495 38.6492C121.739 39.1942 121.862 39.7334 121.866 40.2667C121.87 40.88 121.727 41.461 121.438 42.0097C121.162 42.5449 120.771 43.0209 120.268 43.4377C119.764 43.8546 119.179 44.1852 118.514 44.4298C117.849 44.6744 117.144 44.7992 116.397 44.8044Z" fill="black"/>
<path d="M2.91449 9.23742L3.40414 3.00523L9.64733 3.32553L11.9699 5.97057L5.72667 5.65027L5.23702 11.8825L2.91449 9.23742Z" fill="#E9AA21"/>
<path d="M124.18 39.1092L127.352 40.6807L129.27 46.6307L123.374 48.7094L120.202 47.1379L126.115 45.068L124.18 39.1092Z" fill="#E9AA21"/>
<path d="M19.5041 43.0842C8.86174 39.9487 2.5977 29.223 5.53351 19.1627C8.46932 9.10239 19.5059 3.4738 30.1483 6.60928C40.7907 9.74476 47.0547 20.4705 44.1189 30.5308C43.9159 31.2263 43.1374 31.6234 42.4016 31.4066C41.6658 31.1898 41.2239 30.4332 41.4269 29.7377C43.9518 21.0855 38.5585 11.8507 29.4057 9.15404C20.2529 6.45742 10.7504 11.3036 8.22552 19.9558C5.70062 28.608 11.0939 37.8428 20.2467 40.5394C20.9826 40.7562 21.4244 41.5128 21.2214 42.2084C21.0185 42.9039 20.2399 43.301 19.5041 43.0842Z" fill="#E9AA21"/>
<path d="M26.704 46.1937C24.7574 46.2071 22.9951 45.8859 21.4173 45.23C19.866 44.574 18.6328 43.6225 17.7176 42.3754C16.8023 41.1283 16.3255 39.6516 16.2871 37.9451L22.2869 37.9039C22.3748 39.05 22.781 39.9539 23.5056 40.6156C24.2568 41.2771 25.2724 41.6035 26.5524 41.5947C27.859 41.5857 28.8836 41.272 29.626 40.6535C30.3683 40.0084 30.7359 39.1792 30.7289 38.1659C30.7233 37.3392 30.4653 36.661 29.9549 36.1312C29.4446 35.6013 28.8018 35.1924 28.0265 34.9044C27.2776 34.5895 26.2352 34.25 24.8994 33.8859C23.0824 33.365 21.5989 32.8552 20.4488 32.3564C19.3251 31.8308 18.3464 31.0508 17.5126 30.0165C16.7053 28.9554 16.2956 27.5448 16.2835 25.7849C16.2721 24.1316 16.6756 22.6888 17.4938 21.4564C18.312 20.2241 19.4656 19.2828 20.9545 18.6326C22.4432 17.9557 24.1475 17.6106 26.0675 17.5974C28.9474 17.5776 31.2855 18.2683 33.0819 19.6693C34.9047 21.0435 35.9181 22.9832 36.1219 25.4885L29.9621 25.5309C29.9022 24.5713 29.4834 23.7874 28.7059 23.1794C27.9548 22.5446 26.9527 22.2315 25.6994 22.2401C24.6061 22.2476 23.728 22.5336 23.0652 23.0982C22.4291 23.6626 22.1147 24.4781 22.122 25.5447C22.1271 26.2914 22.3714 26.9164 22.8549 27.4197C23.3649 27.8963 23.9809 28.292 24.7031 28.6071C25.4518 28.8953 26.4941 29.2348 27.8302 29.6256C29.6471 30.1465 31.1308 30.6696 32.2811 31.1951C33.4314 31.7205 34.4235 32.5137 35.2575 33.5747C36.0915 34.6356 36.5144 36.0327 36.5263 37.766C36.5366 39.2593 36.1595 40.6486 35.3949 41.9339C34.6304 43.2192 33.5042 44.2536 32.0162 45.0372C30.528 45.7941 28.7573 46.1796 26.704 46.1937Z" fill="#E9AA21"/>
</svg>
